STARTFONT 2.1
FONT -FontForge-ITC Benguiat Gothic Std-Bold-R-Normal--14-100-100-100-P-74-ISO8859-1
SIZE 10 100 100
FONTBOUNDINGBOX 16 17 -2 -3
COMMENT "Generated by fontforge, http://fontforge.sourceforge.net"
COMMENT "Copyright 1990, 1995 , 2002Adobe Systems Incorporated. All Rights Reserved. ITC Benguiat Gothic is a registered trademark of International Typeface Corporation."
STARTPROPERTIES 40
FOUNDRY "FontForge"
FAMILY_NAME "ITC Benguiat Gothic Std"
WEIGHT_NAME "Bold"
SLANT "R"
SETWIDTH_NAME "Normal"
ADD_STYLE_NAME ""
PIXEL_SIZE 14
POINT_SIZE 100
RESOLUTION_X 100
RESOLUTION_Y 100
SPACING "P"
AVERAGE_WIDTH 74
CHARSET_REGISTRY "ISO8859"
CHARSET_ENCODING "1"
FONTNAME_REGISTRY ""
CHARSET_COLLECTIONS "ISOLatin1Encoding"
FONT_NAME "BenguiatGothicStd-Bold"
FACE_NAME "ITC Benguiat Gothic Std Bold"
COPYRIGHT "Copyright 1990, 1995 , 2002Adobe Systems Incorporated. All Rights Reserved. ITC Benguiat Gothic is a registered trademark of International Typeface Corporation."
FONT_VERSION "001.001"
FONT_ASCENT 10
FONT_DESCENT 4
UNDERLINE_POSITION -1
UNDERLINE_THICKNESS 1
X_HEIGHT 7
CAP_HEIGHT 9
RAW_ASCENT 691
RAW_DESCENT 309
NORM_SPACE 4
RELATIVE_WEIGHT 70
RELATIVE_SETWIDTH 50
SUPERSCRIPT_X 0
SUPERSCRIPT_Y 4
SUPERSCRIPT_SIZE 8
SUBSCRIPT_X 0
SUBSCRIPT_Y 1
SUBSCRIPT_SIZE 8
FIGURE_WIDTH 9
AVG_LOWERCASE_WIDTH 73
AVG_UPPERCASE_WIDTH 85
ENDPROPERTIES
CHARS 253
STARTCHAR space
ENCODING 32
SWIDTH 305 0
DWIDTH 4 0
BBX 1 1 0 0
BITMAP
00
ENDCHAR
STARTCHAR exclam
ENCODING 33
SWIDTH 333 0
DWIDTH 5 0
BBX 2 10 1 0
BITMAP
C0
C0
C0
C0
C0
C0
40
00
C0
C0
ENDCHAR
STARTCHAR quotedbl
ENCODING 34
SWIDTH 333 0
DWIDTH 5 0
BBX 4 4 0 6
BITMAP
D0
D0
D0
50
ENDCHAR
STARTCHAR numbersign
ENCODING 35
SWIDTH 611 0
DWIDTH 9 0
BBX 7 10 1 0
BITMAP
24
24
2C
FE
68
68
FC
48
48
58
ENDCHAR
STARTCHAR dollar
ENCODING 36
SWIDTH 611 0
DWIDTH 9 0
BBX 7 12 1 -1
BITMAP
30
30
FC
C0
E0
FC
36
36
FE
FC
30
30
ENDCHAR
STARTCHAR percent
ENCODING 37
SWIDTH 944 0
DWIDTH 13 0
BBX 12 10 1 0
BITMAP
7100
FB00
9B00
FE00
7600
0DE0
0DE0
1B30
19E0
11E0
ENDCHAR
STARTCHAR ampersand
ENCODING 38
SWIDTH 778 0
DWIDTH 11 0
BBX 10 10 0 0
BITMAP
1C00
3E00
3680
3680
7C80
6C80
C780
6380
7FC0
3EC0
ENDCHAR
STARTCHAR quotesingle
ENCODING 39
SWIDTH 222 0
DWIDTH 3 0
BBX 1 4 1 6
BITMAP
80
80
80
80
ENDCHAR
STARTCHAR parenleft
ENCODING 40
SWIDTH 389 0
DWIDTH 5 0
BBX 4 13 1 -3
BITMAP
30
60
60
C0
C0
C0
C0
C0
C0
C0
60
60
30
ENDCHAR
STARTCHAR parenright
ENCODING 41
SWIDTH 389 0
DWIDTH 5 0
BBX 4 13 1 -3
BITMAP
80
C0
60
60
20
30
30
30
20
60
60
C0
80
ENDCHAR
STARTCHAR asterisk
ENCODING 42
SWIDTH 444 0
DWIDTH 6 0
BBX 4 5 1 5
BITMAP
60
B0
60
B0
60
ENDCHAR
STARTCHAR plus
ENCODING 43
SWIDTH 600 0
DWIDTH 8 0
BBX 7 8 1 0
BITMAP
30
30
30
30
FE
30
30
30
ENDCHAR
STARTCHAR comma
ENCODING 44
SWIDTH 305 0
DWIDTH 4 0
BBX 2 4 1 -1
BITMAP
40
C0
C0
80
ENDCHAR
STARTCHAR hyphen
ENCODING 45
SWIDTH 333 0
DWIDTH 5 0
BBX 3 2 1 3
BITMAP
C0
E0
ENDCHAR
STARTCHAR period
ENCODING 46
SWIDTH 305 0
DWIDTH 4 0
BBX 2 2 1 0
BITMAP
C0
C0
ENDCHAR
STARTCHAR slash
ENCODING 47
SWIDTH 278 0
DWIDTH 4 0
BBX 4 10 0 0
BITMAP
10
30
30
20
60
60
40
C0
C0
80
ENDCHAR
STARTCHAR zero
ENCODING 48
SWIDTH 611 0
DWIDTH 9 0
BBX 8 10 0 0
BITMAP
3C
7E
63
43
C3
C3
43
63
7E
3C
ENDCHAR
STARTCHAR one
ENCODING 49
SWIDTH 611 0
DWIDTH 9 0
BBX 7 10 1 0
BITMAP
30
F8
18
18
18
18
18
18
7E
FE
ENDCHAR
STARTCHAR two
ENCODING 50
SWIDTH 611 0
DWIDTH 9 0
BBX 7 10 1 0
BITMAP
FC
FC
06
0E
1C
78
E0
C0
FE
FE
ENDCHAR
STARTCHAR three
ENCODING 51
SWIDTH 611 0
DWIDTH 9 0
BBX 7 10 1 0
BITMAP
FC
FC
38
70
7C
0E
06
06
FE
F8
ENDCHAR
STARTCHAR four
ENCODING 52
SWIDTH 611 0
DWIDTH 9 0
BBX 8 10 0 0
BITMAP
0C
1E
36
66
46
C6
FF
7F
06
06
ENDCHAR
STARTCHAR five
ENCODING 53
SWIDTH 611 0
DWIDTH 9 0
BBX 7 10 1 0
BITMAP
FC
FC
C0
F8
FC
06
06
06
FE
FC
ENDCHAR
STARTCHAR six
ENCODING 54
SWIDTH 611 0
DWIDTH 9 0
BBX 8 10 0 0
BITMAP
1F
7E
60
7E
FF
E3
63
63
7F
3C
ENDCHAR
STARTCHAR seven
ENCODING 55
SWIDTH 611 0
DWIDTH 9 0
BBX 7 10 1 0
BITMAP
FE
7E
04
0C
18
38
30
30
30
20
ENDCHAR
STARTCHAR eight
ENCODING 56
SWIDTH 611 0
DWIDTH 9 0
BBX 8 10 0 0
BITMAP
3C
7E
63
7E
7E
63
C3
E3
7F
3E
ENDCHAR
STARTCHAR nine
ENCODING 57
SWIDTH 611 0
DWIDTH 9 0
BBX 8 10 0 0
BITMAP
3C
7E
63
C3
E3
7F
3F
03
7E
7C
ENDCHAR
STARTCHAR colon
ENCODING 58
SWIDTH 305 0
DWIDTH 4 0
BBX 2 6 1 0
BITMAP
C0
C0
00
00
C0
C0
ENDCHAR
STARTCHAR semicolon
ENCODING 59
SWIDTH 305 0
DWIDTH 4 0
BBX 2 7 1 -1
BITMAP
C0
C0
00
00
C0
C0
80
ENDCHAR
STARTCHAR less
ENCODING 60
SWIDTH 600 0
DWIDTH 8 0
BBX 7 8 1 0
BITMAP
02
1E
78
E0
E0
78
1E
02
ENDCHAR
STARTCHAR equal
ENCODING 61
SWIDTH 600 0
DWIDTH 8 0
BBX 7 4 1 2
BITMAP
FE
00
00
FE
ENDCHAR
STARTCHAR greater
ENCODING 62
SWIDTH 600 0
DWIDTH 8 0
BBX 7 8 1 0
BITMAP
80
E0
78
0E
0E
78
E0
80
ENDCHAR
STARTCHAR question
ENCODING 63
SWIDTH 500 0
DWIDTH 7 0
BBX 6 10 0 0
BITMAP
FC
7C
0C
0C
38
30
30
00
30
30
ENDCHAR
STARTCHAR at
ENCODING 64
SWIDTH 800 0
DWIDTH 11 0
BBX 10 10 1 0
BITMAP
3E00
6180
DF80
B6C0
A280
A280
B680
DF00
6180
1E00
ENDCHAR
STARTCHAR A
ENCODING 65
SWIDTH 667 0
DWIDTH 9 0
BBX 9 10 0 0
BITMAP
0C00
1C00
3600
3600
6300
7F00
6700
4380
C180
C180
ENDCHAR
STARTCHAR B
ENCODING 66
SWIDTH 611 0
DWIDTH 9 0
BBX 7 10 1 0
BITMAP
FC
FE
C6
FC
FC
CE
C6
C6
FE
FC
ENDCHAR
STARTCHAR C
ENCODING 67
SWIDTH 611 0
DWIDTH 9 0
BBX 7 10 1 0
BITMAP
7E
FE
C0
C0
C0
C0
C0
60
3E
1E
ENDCHAR
STARTCHAR D
ENCODING 68
SWIDTH 667 0
DWIDTH 9 0
BBX 8 10 1 0
BITMAP
F0
FC
CE
C6
C3
C3
C3
C7
FE
FC
ENDCHAR
STARTCHAR E
ENCODING 69
SWIDTH 556 0
DWIDTH 8 0
BBX 6 10 1 0
BITMAP
FC
FC
C0
FC
FC
C0
C0
C0
FC
FC
ENDCHAR
STARTCHAR F
ENCODING 70
SWIDTH 500 0
DWIDTH 7 0
BBX 6 10 1 0
BITMAP
FC
F8
C0
FC
F8
C0
C0
C0
C0
C0
ENDCHAR
STARTCHAR G
ENCODING 71
SWIDTH 722 0
DWIDTH 10 0
BBX 8 10 1 0
BITMAP
7F
FF
C0
CF
CF
C1
C1
61
3F
1F
ENDCHAR
STARTCHAR H
ENCODING 72
SWIDTH 611 0
DWIDTH 9 0
BBX 7 10 1 0
BITMAP
C6
C6
C6
FE
FE
C6
C6
C6
C6
C6
ENDCHAR
STARTCHAR I
ENCODING 73
SWIDTH 278 0
DWIDTH 4 0
BBX 2 10 1 0
BITMAP
C0
C0
C0
C0
C0
C0
C0
C0
C0
C0
ENDCHAR
STARTCHAR J
ENCODING 74
SWIDTH 444 0
DWIDTH 6 0
BBX 5 10 0 0
BITMAP
08
08
08
08
08
08
08
18
F8
F0
ENDCHAR
STARTCHAR K
ENCODING 75
SWIDTH 611 0
DWIDTH 9 0
BBX 7 10 1 0
BITMAP
C6
C6
CC
F8
F8
CC
C6
C6
C6
C2
ENDCHAR
STARTCHAR L
ENCODING 76
SWIDTH 444 0
DWIDTH 6 0
BBX 5 10 1 0
BITMAP
C0
C0
C0
C0
C0
C0
C0
C0
F8
F8
ENDCHAR
STARTCHAR M
ENCODING 77
SWIDTH 722 0
DWIDTH 10 0
BBX 8 10 1 0
BITMAP
62
E7
E7
FF
D9
99
81
81
81
81
ENDCHAR
STARTCHAR N
ENCODING 78
SWIDTH 611 0
DWIDTH 9 0
BBX 7 10 1 0
BITMAP
C6
E6
F6
FE
CE
C6
C6
C6
C6
C6
ENDCHAR
STARTCHAR O
ENCODING 79
SWIDTH 722 0
DWIDTH 10 0
BBX 9 10 1 0
BITMAP
3C00
7E00
C300
C300
C180
C180
C300
C300
7E00
3C00
ENDCHAR
STARTCHAR P
ENCODING 80
SWIDTH 556 0
DWIDTH 8 0
BBX 7 10 1 0
BITMAP
FC
FE
C6
CC
F8
E0
C0
C0
C0
C0
ENDCHAR
STARTCHAR Q
ENCODING 81
SWIDTH 722 0
DWIDTH 10 0
BBX 9 12 1 -2
BITMAP
3C00
7E00
C300
C300
C180
C180
FB00
CF00
7E00
3E00
0700
0380
ENDCHAR
STARTCHAR R
ENCODING 82
SWIDTH 611 0
DWIDTH 9 0
BBX 7 10 1 0
BITMAP
FC
FE
C6
FC
FC
CC
C6
C6
C6
C2
ENDCHAR
STARTCHAR S
ENCODING 83
SWIDTH 611 0
DWIDTH 9 0
BBX 8 10 0 0
BITMAP
7E
7E
40
78
3E
03
03
03
7E
FC
ENDCHAR
STARTCHAR T
ENCODING 84
SWIDTH 500 0
DWIDTH 7 0
BBX 7 10 0 0
BITMAP
FE
FE
10
10
10
10
10
10
10
10
ENDCHAR
STARTCHAR U
ENCODING 85
SWIDTH 611 0
DWIDTH 9 0
BBX 7 10 1 0
BITMAP
C4
C4
C6
C6
C6
86
86
C6
FC
78
ENDCHAR
STARTCHAR V
ENCODING 86
SWIDTH 611 0
DWIDTH 9 0
BBX 8 10 0 0
BITMAP
43
C3
43
63
63
66
36
34
1C
18
ENDCHAR
STARTCHAR W
ENCODING 87
SWIDTH 833 0
DWIDTH 12 0
BBX 11 10 0 0
BITMAP
4620
C660
4660
4660
6660
6E60
6F40
2BC0
39C0
3180
ENDCHAR
STARTCHAR X
ENCODING 88
SWIDTH 611 0
DWIDTH 9 0
BBX 8 10 0 0
BITMAP
43
63
76
3C
3C
76
63
C3
C3
C1
ENDCHAR
STARTCHAR Y
ENCODING 89
SWIDTH 556 0
DWIDTH 8 0
BBX 7 10 0 0
BITMAP
C2
C2
66
6C
3C
18
18
18
18
18
ENDCHAR
STARTCHAR Z
ENCODING 90
SWIDTH 500 0
DWIDTH 7 0
BBX 7 10 0 0
BITMAP
7C
7E
0C
0C
18
30
60
40
FC
FE
ENDCHAR
STARTCHAR bracketleft
ENCODING 91
SWIDTH 389 0
DWIDTH 5 0
BBX 4 13 1 -3
BITMAP
F0
C0
C0
C0
C0
C0
C0
C0
C0
C0
C0
C0
F0
ENDCHAR
STARTCHAR backslash
ENCODING 92
SWIDTH 278 0
DWIDTH 4 0
BBX 4 10 0 0
BITMAP
80
C0
C0
C0
60
60
20
30
30
10
ENDCHAR
STARTCHAR bracketright
ENCODING 93
SWIDTH 389 0
DWIDTH 5 0
BBX 4 13 0 -3
BITMAP
F0
10
10
10
10
10
10
10
10
10
10
10
F0
ENDCHAR
STARTCHAR asciicircum
ENCODING 94
SWIDTH 600 0
DWIDTH 8 0
BBX 6 5 1 5
BITMAP
30
38
68
4C
C4
ENDCHAR
STARTCHAR underscore
ENCODING 95
SWIDTH 500 0
DWIDTH 7 0
BBX 7 1 0 -2
BITMAP
FE
ENDCHAR
STARTCHAR grave
ENCODING 96
SWIDTH 278 0
DWIDTH 4 0
BBX 4 2 0 8
BITMAP
C0
70
ENDCHAR
STARTCHAR a
ENCODING 97
SWIDTH 556 0
DWIDTH 8 0
BBX 7 8 0 0
BITMAP
7C
3C
06
7E
66
C6
6E
7E
ENDCHAR
STARTCHAR b
ENCODING 98
SWIDTH 556 0
DWIDTH 8 0
BBX 6 10 1 0
BITMAP
C0
C0
F0
F8
CC
CC
C4
CC
FC
F8
ENDCHAR
STARTCHAR c
ENCODING 99
SWIDTH 500 0
DWIDTH 7 0
BBX 7 8 0 0
BITMAP
3E
7C
40
C0
40
60
3C
1E
ENDCHAR
STARTCHAR d
ENCODING 100
SWIDTH 556 0
DWIDTH 8 0
BBX 7 10 0 0
BITMAP
06
06
1E
7E
66
46
C6
C6
7E
3E
ENDCHAR
STARTCHAR e
ENCODING 101
SWIDTH 556 0
DWIDTH 8 0
BBX 7 8 0 0
BITMAP
3C
7E
66
FE
C0
60
7C
3E
ENDCHAR
STARTCHAR f
ENCODING 102
SWIDTH 333 0
DWIDTH 5 0
BBX 5 10 0 0
BITMAP
38
78
F8
70
60
60
60
60
60
60
ENDCHAR
STARTCHAR g
ENCODING 103
SWIDTH 556 0
DWIDTH 8 0
BBX 8 11 0 -3
BITMAP
1E
7E
66
46
C6
46
7E
3F
03
FE
7C
ENDCHAR
STARTCHAR h
ENCODING 104
SWIDTH 556 0
DWIDTH 8 0
BBX 6 10 1 0
BITMAP
C0
C0
F8
FC
CC
CC
CC
CC
CC
8C
ENDCHAR
STARTCHAR i
ENCODING 105
SWIDTH 278 0
DWIDTH 4 0
BBX 2 11 1 0
BITMAP
40
C0
00
C0
C0
C0
C0
C0
C0
C0
C0
ENDCHAR
STARTCHAR j
ENCODING 106
SWIDTH 222 0
DWIDTH 3 0
BBX 4 13 -2 -3
BITMAP
10
00
10
10
10
10
10
10
10
10
10
F0
E0
ENDCHAR
STARTCHAR k
ENCODING 107
SWIDTH 500 0
DWIDTH 7 0
BBX 6 10 1 0
BITMAP
C0
C0
C8
C8
D8
F0
F0
D8
CC
CC
ENDCHAR
STARTCHAR l
ENCODING 108
SWIDTH 278 0
DWIDTH 4 0
BBX 2 10 1 0
BITMAP
C0
C0
C0
C0
C0
C0
C0
C0
C0
C0
ENDCHAR
STARTCHAR m
ENCODING 109
SWIDTH 833 0
DWIDTH 12 0
BBX 10 8 1 0
BITMAP
BB80
FFC0
CCC0
CCC0
CCC0
CCC0
CCC0
8CC0
ENDCHAR
STARTCHAR n
ENCODING 110
SWIDTH 556 0
DWIDTH 8 0
BBX 6 8 1 0
BITMAP
B8
FC
CC
CC
CC
CC
CC
8C
ENDCHAR
STARTCHAR o
ENCODING 111
SWIDTH 556 0
DWIDTH 8 0
BBX 7 8 0 0
BITMAP
3C
7E
46
C2
C2
46
7E
3C
ENDCHAR
STARTCHAR p
ENCODING 112
SWIDTH 556 0
DWIDTH 8 0
BBX 6 11 1 -3
BITMAP
F0
F8
CC
CC
C4
CC
FC
F8
C0
C0
80
ENDCHAR
STARTCHAR q
ENCODING 113
SWIDTH 556 0
DWIDTH 8 0
BBX 7 11 0 -3
BITMAP
1E
7E
66
C6
C6
C6
7E
3E
06
06
06
ENDCHAR
STARTCHAR r
ENCODING 114
SWIDTH 333 0
DWIDTH 5 0
BBX 4 8 1 0
BITMAP
B0
E0
C0
C0
C0
C0
C0
C0
ENDCHAR
STARTCHAR s
ENCODING 115
SWIDTH 500 0
DWIDTH 7 0
BBX 7 8 0 0
BITMAP
7C
78
40
7C
1C
06
7C
FC
ENDCHAR
STARTCHAR t
ENCODING 116
SWIDTH 389 0
DWIDTH 5 0
BBX 6 10 0 0
BITMAP
60
60
F8
70
60
60
60
60
78
3C
ENDCHAR
STARTCHAR u
ENCODING 117
SWIDTH 556 0
DWIDTH 8 0
BBX 6 8 1 0
BITMAP
8C
CC
CC
CC
CC
CC
FC
7C
ENDCHAR
STARTCHAR v
ENCODING 118
SWIDTH 500 0
DWIDTH 7 0
BBX 7 8 0 0
BITMAP
44
C6
44
6C
6C
28
38
10
ENDCHAR
STARTCHAR w
ENCODING 119
SWIDTH 722 0
DWIDTH 10 0
BBX 10 8 0 0
BITMAP
4CC0
CCC0
4C80
4C80
6C80
7F80
3300
3300
ENDCHAR
STARTCHAR x
ENCODING 120
SWIDTH 500 0
DWIDTH 7 0
BBX 7 8 0 0
BITMAP
44
6C
6C
38
7C
6C
C6
C6
ENDCHAR
STARTCHAR y
ENCODING 121
SWIDTH 500 0
DWIDTH 7 0
BBX 6 11 1 -3
BITMAP
8C
8C
8C
C8
D8
58
70
30
60
60
C0
ENDCHAR
STARTCHAR z
ENCODING 122
SWIDTH 444 0
DWIDTH 6 0
BBX 6 8 0 0
BITMAP
7C
7C
18
38
70
60
F8
FC
ENDCHAR
STARTCHAR braceleft
ENCODING 123
SWIDTH 389 0
DWIDTH 5 0
BBX 4 13 1 -3
BITMAP
70
60
60
60
60
60
80
40
60
60
60
60
70
ENDCHAR
STARTCHAR bar
ENCODING 124
SWIDTH 222 0
DWIDTH 3 0
BBX 1 14 1 -3
BITMAP
80
80
80
80
80
80
80
80
80
80
80
80
80
80
ENDCHAR
STARTCHAR braceright
ENCODING 125
SWIDTH 389 0
DWIDTH 5 0
BBX 5 13 0 -3
BITMAP
E0
30
30
30
30
30
18
30
30
30
30
30
E0
ENDCHAR
STARTCHAR asciitilde
ENCODING 126
SWIDTH 600 0
DWIDTH 8 0
BBX 6 2 1 3
BITMAP
E4
BC
ENDCHAR
STARTCHAR uni00A0
ENCODING 160
SWIDTH 305 0
DWIDTH 4 0
BBX 1 1 0 0
BITMAP
00
ENDCHAR
STARTCHAR exclamdown
ENCODING 161
SWIDTH 333 0
DWIDTH 5 0
BBX 2 10 1 -3
BITMAP
C0
C0
00
40
C0
C0
C0
C0
C0
C0
ENDCHAR
STARTCHAR cent
ENCODING 162
SWIDTH 611 0
DWIDTH 9 0
BBX 7 11 0 -1
BITMAP
08
08
3E
7C
C8
C8
68
3E
0C
08
08
ENDCHAR
STARTCHAR sterling
ENCODING 163
SWIDTH 611 0
DWIDTH 9 0
BBX 8 10 0 0
BITMAP
0F
1F
18
10
7F
7E
18
10
7F
FF
ENDCHAR
STARTCHAR currency
ENCODING 164
SWIDTH 611 0
DWIDTH 9 0
BBX 7 8 1 1
BITMAP
80
FE
C4
86
86
C4
FE
80
ENDCHAR
STARTCHAR yen
ENCODING 165
SWIDTH 611 0
DWIDTH 9 0
BBX 7 10 1 0
BITMAP
86
C6
CC
EE
FC
7C
FC
30
30
30
ENDCHAR
STARTCHAR brokenbar
ENCODING 166
SWIDTH 222 0
DWIDTH 3 0
BBX 1 12 1 -2
BITMAP
80
80
80
80
80
00
00
80
80
80
80
80
ENDCHAR
STARTCHAR section
ENCODING 167
SWIDTH 500 0
DWIDTH 7 0
BBX 6 10 0 0
BITMAP
7C
60
60
7C
CC
74
3C
0C
0C
78
ENDCHAR
STARTCHAR dieresis
ENCODING 168
SWIDTH 278 0
DWIDTH 4 0
BBX 4 2 0 8
BITMAP
90
90
ENDCHAR
STARTCHAR copyright
ENCODING 169
SWIDTH 800 0
DWIDTH 11 0
BBX 10 10 1 0
BITMAP
3E00
6300
DD80
B280
A0C0
A0C0
B280
DC80
6300
3E00
ENDCHAR
STARTCHAR ordfeminine
ENCODING 170
SWIDTH 334 0
DWIDTH 5 0
BBX 4 5 0 5
BITMAP
70
10
70
90
70
ENDCHAR
STARTCHAR guillemotleft
ENCODING 171
SWIDTH 500 0
DWIDTH 7 0
BBX 5 6 1 1
BITMAP
48
58
D8
D8
D8
48
ENDCHAR
STARTCHAR logicalnot
ENCODING 172
SWIDTH 600 0
DWIDTH 8 0
BBX 7 4 1 2
BITMAP
FE
06
06
06
ENDCHAR
STARTCHAR uni00AD
ENCODING 173
SWIDTH 333 0
DWIDTH 5 0
BBX 3 2 1 3
BITMAP
C0
E0
ENDCHAR
STARTCHAR registered
ENCODING 174
SWIDTH 800 0
DWIDTH 11 0
BBX 10 10 1 0
BITMAP
3E00
6300
DC80
9280
9EC0
94C0
9480
D380
6300
3E00
ENDCHAR
STARTCHAR macron
ENCODING 175
SWIDTH 278 0
DWIDTH 4 0
BBX 4 1 0 8
BITMAP
F0
ENDCHAR
STARTCHAR degree
ENCODING 176
SWIDTH 400 0
DWIDTH 6 0
BBX 4 4 1 6
BITMAP
E0
90
90
E0
ENDCHAR
STARTCHAR plusminus
ENCODING 177
SWIDTH 600 0
DWIDTH 8 0
BBX 7 8 1 0
BITMAP
30
30
FE
30
30
30
00
FE
ENDCHAR
STARTCHAR twosuperior
ENCODING 178
SWIDTH 366 0
DWIDTH 5 0
BBX 5 7 0 3
BITMAP
F0
18
18
30
60
C0
F8
ENDCHAR
STARTCHAR threesuperior
ENCODING 179
SWIDTH 366 0
DWIDTH 5 0
BBX 5 7 0 3
BITMAP
F0
20
70
18
08
18
F0
ENDCHAR
STARTCHAR acute
ENCODING 180
SWIDTH 278 0
DWIDTH 4 0
BBX 4 2 0 8
BITMAP
30
E0
ENDCHAR
STARTCHAR mu
ENCODING 181
SWIDTH 556 0
DWIDTH 8 0
BBX 6 11 1 -3
BITMAP
8C
CC
CC
CC
CC
CC
FC
FC
C0
C0
80
ENDCHAR
STARTCHAR paragraph
ENCODING 182
SWIDTH 620 0
DWIDTH 9 0
BBX 8 10 0 0
BITMAP
7F
7B
FB
7B
7B
0B
0B
0B
0B
0B
ENDCHAR
STARTCHAR periodcentered
ENCODING 183
SWIDTH 305 0
DWIDTH 4 0
BBX 2 2 1 3
BITMAP
C0
C0
ENDCHAR
STARTCHAR cedilla
ENCODING 184
SWIDTH 278 0
DWIDTH 4 0
BBX 4 3 0 -3
BITMAP
60
10
E0
ENDCHAR
STARTCHAR onesuperior
ENCODING 185
SWIDTH 366 0
DWIDTH 5 0
BBX 5 7 0 3
BITMAP
60
E0
20
20
20
20
F8
ENDCHAR
STARTCHAR ordmasculine
ENCODING 186
SWIDTH 334 0
DWIDTH 5 0
BBX 5 5 0 5
BITMAP
70
90
98
90
70
ENDCHAR
STARTCHAR guillemotright
ENCODING 187
SWIDTH 500 0
DWIDTH 7 0
BBX 5 6 1 1
BITMAP
90
D0
D8
D8
D8
90
ENDCHAR
STARTCHAR onequarter
ENCODING 188
SWIDTH 916 0
DWIDTH 13 0
BBX 13 10 0 0
BITMAP
6040
E0C0
2180
2180
2300
2260
FEE0
0DA0
09F8
1820
ENDCHAR
STARTCHAR onehalf
ENCODING 189
SWIDTH 916 0
DWIDTH 13 0
BBX 13 10 0 0
BITMAP
60C0
E0C0
2180
2300
2300
26F0
FC10
0C70
1880
10F8
ENDCHAR
STARTCHAR threequarters
ENCODING 190
SWIDTH 916 0
DWIDTH 13 0
BBX 13 10 0 0
BITMAP
7840
30C0
7880
0980
0F00
0B70
FEF0
0CB0
0DF8
1830
ENDCHAR
STARTCHAR questiondown
ENCODING 191
SWIDTH 500 0
DWIDTH 7 0
BBX 6 10 1 -3
BITMAP
30
30
00
10
30
70
C0
C0
F8
FC
ENDCHAR
STARTCHAR Agrave
ENCODING 192
SWIDTH 667 0
DWIDTH 9 0
BBX 9 12 0 0
BITMAP
1800
0400
0C00
1C00
3600
3600
6300
7F00
6700
4380
C180
C180
ENDCHAR
STARTCHAR Aacute
ENCODING 193
SWIDTH 667 0
DWIDTH 9 0
BBX 9 12 0 0
BITMAP
0E00
1800
0C00
1C00
3600
3600
6300
7F00
6700
4380
C180
C180
ENDCHAR
STARTCHAR Acircumflex
ENCODING 194
SWIDTH 667 0
DWIDTH 9 0
BBX 9 13 0 0
BITMAP
0C00
1400
0000
0C00
1C00
3600
3600
6300
7F00
6700
4380
C180
C180
ENDCHAR
STARTCHAR Atilde
ENCODING 195
SWIDTH 667 0
DWIDTH 9 0
BBX 9 13 0 0
BITMAP
0200
1E00
2000
0C00
1C00
3600
3600
6300
7F00
6700
4380
C180
C180
ENDCHAR
STARTCHAR Adieresis
ENCODING 196
SWIDTH 667 0
DWIDTH 9 0
BBX 9 13 0 0
BITMAP
1200
3600
0000
0C00
1C00
3600
3600
6300
7F00
6700
4380
C180
C180
ENDCHAR
STARTCHAR Aring
ENCODING 197
SWIDTH 667 0
DWIDTH 9 0
BBX 9 14 0 0
BITMAP
0C00
1400
0C00
0000
0C00
1C00
3600
3600
6300
7F00
6700
4380
C180
C180
ENDCHAR
STARTCHAR AE
ENCODING 198
SWIDTH 889 0
DWIDTH 12 0
BBX 12 10 0 0
BITMAP
07F0
1FF0
1300
37F0
7FE0
7300
6300
C300
C3F0
83F0
ENDCHAR
STARTCHAR Ccedilla
ENCODING 199
SWIDTH 611 0
DWIDTH 9 0
BBX 7 13 1 -3
BITMAP
7E
FE
C0
C0
C0
C0
C0
60
3E
1E
10
0C
18
ENDCHAR
STARTCHAR Egrave
ENCODING 200
SWIDTH 556 0
DWIDTH 8 0
BBX 6 12 1 0
BITMAP
70
18
FC
FC
C0
FC
FC
C0
C0
C0
FC
FC
ENDCHAR
STARTCHAR Eacute
ENCODING 201
SWIDTH 556 0
DWIDTH 8 0
BBX 6 12 1 0
BITMAP
38
60
FC
FC
C0
FC
FC
C0
C0
C0
FC
FC
ENDCHAR
STARTCHAR Ecircumflex
ENCODING 202
SWIDTH 556 0
DWIDTH 8 0
BBX 6 13 1 0
BITMAP
30
78
00
FC
FC
C0
FC
FC
C0
C0
C0
FC
FC
ENDCHAR
STARTCHAR Edieresis
ENCODING 203
SWIDTH 556 0
DWIDTH 8 0
BBX 6 13 1 0
BITMAP
48
48
00
FC
FC
C0
FC
FC
C0
C0
C0
FC
FC
ENDCHAR
STARTCHAR Igrave
ENCODING 204
SWIDTH 278 0
DWIDTH 4 0
BBX 4 12 0 0
BITMAP
E0
30
60
60
60
60
60
60
60
60
60
60
ENDCHAR
STARTCHAR Iacute
ENCODING 205
SWIDTH 278 0
DWIDTH 4 0
BBX 4 12 0 0
BITMAP
70
C0
60
60
60
60
60
60
60
60
60
60
ENDCHAR
STARTCHAR Icircumflex
ENCODING 206
SWIDTH 278 0
DWIDTH 4 0
BBX 4 13 0 0
BITMAP
60
B0
00
60
60
60
60
60
60
60
60
60
60
ENDCHAR
STARTCHAR Idieresis
ENCODING 207
SWIDTH 278 0
DWIDTH 4 0
BBX 4 13 0 0
BITMAP
90
90
00
60
60
60
60
60
60
60
60
60
60
ENDCHAR
STARTCHAR Eth
ENCODING 208
SWIDTH 667 0
DWIDTH 9 0
BBX 9 10 0 0
BITMAP
7800
7E00
6700
6300
F980
7180
6180
6380
7F00
7E00
ENDCHAR
STARTCHAR Ntilde
ENCODING 209
SWIDTH 611 0
DWIDTH 9 0
BBX 7 13 1 0
BITMAP
24
78
00
C6
E6
F6
FE
CE
C6
C6
C6
C6
C6
ENDCHAR
STARTCHAR Ograve
ENCODING 210
SWIDTH 722 0
DWIDTH 10 0
BBX 9 12 1 0
BITMAP
3800
0C00
3C00
7E00
C300
C300
C180
C180
C300
C300
7E00
3C00
ENDCHAR
STARTCHAR Oacute
ENCODING 211
SWIDTH 722 0
DWIDTH 10 0
BBX 9 12 1 0
BITMAP
1C00
3000
3C00
7E00
C300
C300
C180
C180
C300
C300
7E00
3C00
ENDCHAR
STARTCHAR Ocircumflex
ENCODING 212
SWIDTH 722 0
DWIDTH 10 0
BBX 9 13 1 0
BITMAP
1800
3C00
0000
3C00
7E00
C300
C300
C180
C180
C300
C300
7E00
3C00
ENDCHAR
STARTCHAR Otilde
ENCODING 213
SWIDTH 722 0
DWIDTH 10 0
BBX 9 12 1 0
BITMAP
3C00
0000
3C00
7E00
C300
C300
C180
C180
C300
C300
7E00
3C00
ENDCHAR
STARTCHAR Odieresis
ENCODING 214
SWIDTH 722 0
DWIDTH 10 0
BBX 9 13 1 0
BITMAP
2400
2400
0000
3C00
7E00
C300
C300
C180
C180
C300
C300
7E00
3C00
ENDCHAR
STARTCHAR multiply
ENCODING 215
SWIDTH 600 0
DWIDTH 8 0
BBX 6 8 1 0
BITMAP
84
CC
7C
38
38
7C
CC
84
ENDCHAR
STARTCHAR Oslash
ENCODING 216
SWIDTH 722 0
DWIDTH 10 0
BBX 9 12 1 -1
BITMAP
0200
3E00
7E00
CF00
CF00
D980
D980
F300
F300
7E00
7C00
4000
ENDCHAR
STARTCHAR Ugrave
ENCODING 217
SWIDTH 611 0
DWIDTH 9 0
BBX 7 12 1 0
BITMAP
70
08
C4
C4
C6
C6
C6
86
86
C6
FC
78
ENDCHAR
STARTCHAR Uacute
ENCODING 218
SWIDTH 611 0
DWIDTH 9 0
BBX 7 12 1 0
BITMAP
38
60
C4
C4
C6
C6
C6
86
86
C6
FC
78
ENDCHAR
STARTCHAR Ucircumflex
ENCODING 219
SWIDTH 611 0
DWIDTH 9 0
BBX 7 13 1 0
BITMAP
30
68
00
C4
C4
C6
C6
C6
86
86
C6
FC
78
ENDCHAR
STARTCHAR Udieresis
ENCODING 220
SWIDTH 611 0
DWIDTH 9 0
BBX 7 13 1 0
BITMAP
48
4C
00
C4
C4
C6
C6
C6
86
86
C6
FC
78
ENDCHAR
STARTCHAR Yacute
ENCODING 221
SWIDTH 556 0
DWIDTH 8 0
BBX 7 12 0 0
BITMAP
1C
30
C2
C2
66
6C
3C
18
18
18
18
18
ENDCHAR
STARTCHAR Thorn
ENCODING 222
SWIDTH 556 0
DWIDTH 8 0
BBX 7 10 1 0
BITMAP
C0
C0
FC
FE
C6
DC
F8
C0
C0
C0
ENDCHAR
STARTCHAR germandbls
ENCODING 223
SWIDTH 556 0
DWIDTH 8 0
BBX 7 10 0 0
BITMAP
3C
6C
4C
D8
58
5E
46
42
7E
7C
ENDCHAR
STARTCHAR agrave
ENCODING 224
SWIDTH 556 0
DWIDTH 8 0
BBX 7 11 0 0
BITMAP
20
3C
00
7C
3C
06
7E
66
C6
6E
7E
ENDCHAR
STARTCHAR aacute
ENCODING 225
SWIDTH 556 0
DWIDTH 8 0
BBX 7 11 0 0
BITMAP
0C
3C
00
7C
3C
06
7E
66
C6
6E
7E
ENDCHAR
STARTCHAR acircumflex
ENCODING 226
SWIDTH 556 0
DWIDTH 8 0
BBX 7 10 0 0
BITMAP
38
00
7C
3C
06
7E
66
C6
6E
7E
ENDCHAR
STARTCHAR atilde
ENCODING 227
SWIDTH 556 0
DWIDTH 8 0
BBX 7 10 0 0
BITMAP
3C
00
7C
3C
06
7E
66
C6
6E
7E
ENDCHAR
STARTCHAR adieresis
ENCODING 228
SWIDTH 556 0
DWIDTH 8 0
BBX 7 11 0 0
BITMAP
24
64
00
7C
3C
06
7E
66
C6
6E
7E
ENDCHAR
STARTCHAR aring
ENCODING 229
SWIDTH 556 0
DWIDTH 8 0
BBX 7 12 0 0
BITMAP
18
28
18
00
7C
3C
06
7E
66
C6
6E
7E
ENDCHAR
STARTCHAR ae
ENCODING 230
SWIDTH 778 0
DWIDTH 11 0
BBX 11 8 0 0
BITMAP
7B80
7EC0
0C60
7FE0
CC00
CC00
FFC0
7BE0
ENDCHAR
STARTCHAR ccedilla
ENCODING 231
SWIDTH 500 0
DWIDTH 7 0
BBX 7 11 0 -3
BITMAP
3E
7C
40
C0
40
60
3E
1E
10
0C
18
ENDCHAR
STARTCHAR egrave
ENCODING 232
SWIDTH 556 0
DWIDTH 8 0
BBX 7 11 0 0
BITMAP
20
3C
00
3C
7E
66
FE
C0
60
7C
3E
ENDCHAR
STARTCHAR eacute
ENCODING 233
SWIDTH 556 0
DWIDTH 8 0
BBX 7 11 0 0
BITMAP
04
3C
00
3C
7E
66
FE
C0
60
7C
3E
ENDCHAR
STARTCHAR ecircumflex
ENCODING 234
SWIDTH 556 0
DWIDTH 8 0
BBX 7 10 0 0
BITMAP
18
24
3C
7E
66
FE
C0
60
7C
3E
ENDCHAR
STARTCHAR edieresis
ENCODING 235
SWIDTH 556 0
DWIDTH 8 0
BBX 7 11 0 0
BITMAP
24
24
00
3C
7E
66
FE
C0
60
7C
3E
ENDCHAR
STARTCHAR igrave
ENCODING 236
SWIDTH 278 0
DWIDTH 4 0
BBX 4 11 0 0
BITMAP
80
F0
00
60
60
60
60
60
60
60
60
ENDCHAR
STARTCHAR iacute
ENCODING 237
SWIDTH 278 0
DWIDTH 4 0
BBX 4 11 0 0
BITMAP
10
F0
00
60
60
60
60
60
60
60
60
ENDCHAR
STARTCHAR icircumflex
ENCODING 238
SWIDTH 278 0
DWIDTH 4 0
BBX 4 10 0 0
BITMAP
60
90
60
60
60
60
60
60
60
60
ENDCHAR
STARTCHAR idieresis
ENCODING 239
SWIDTH 278 0
DWIDTH 4 0
BBX 4 11 0 0
BITMAP
90
90
00
60
60
60
60
60
60
60
60
ENDCHAR
STARTCHAR eth
ENCODING 240
SWIDTH 556 0
DWIDTH 8 0
BBX 6 10 1 0
BITMAP
F8
70
78
0C
FC
CC
8C
8C
DC
78
ENDCHAR
STARTCHAR ntilde
ENCODING 241
SWIDTH 556 0
DWIDTH 8 0
BBX 6 10 1 0
BITMAP
78
00
B8
FC
CC
CC
CC
CC
CC
8C
ENDCHAR
STARTCHAR ograve
ENCODING 242
SWIDTH 556 0
DWIDTH 8 0
BBX 7 11 0 0
BITMAP
20
3C
00
3C
7E
46
C2
C2
46
7E
3C
ENDCHAR
STARTCHAR oacute
ENCODING 243
SWIDTH 556 0
DWIDTH 8 0
BBX 7 11 0 0
BITMAP
04
3C
00
3C
7E
46
C2
C2
46
7E
3C
ENDCHAR
STARTCHAR ocircumflex
ENCODING 244
SWIDTH 556 0
DWIDTH 8 0
BBX 7 10 0 0
BITMAP
18
24
3C
7E
46
C2
C2
46
7E
3C
ENDCHAR
STARTCHAR otilde
ENCODING 245
SWIDTH 556 0
DWIDTH 8 0
BBX 7 10 0 0
BITMAP
3C
00
3C
7E
46
C2
C2
46
7E
3C
ENDCHAR
STARTCHAR odieresis
ENCODING 246
SWIDTH 556 0
DWIDTH 8 0
BBX 7 11 0 0
BITMAP
24
24
00
3C
7E
46
C2
C2
46
7E
3C
ENDCHAR
STARTCHAR divide
ENCODING 247
SWIDTH 600 0
DWIDTH 8 0
BBX 7 7 1 0
BITMAP
30
30
00
FE
00
30
30
ENDCHAR
STARTCHAR oslash
ENCODING 248
SWIDTH 556 0
DWIDTH 8 0
BBX 7 10 0 -1
BITMAP
06
3C
7E
4E
CA
D2
76
7E
7C
40
ENDCHAR
STARTCHAR ugrave
ENCODING 249
SWIDTH 556 0
DWIDTH 8 0
BBX 6 11 1 0
BITMAP
40
78
00
8C
CC
CC
CC
CC
CC
FC
7C
ENDCHAR
STARTCHAR uacute
ENCODING 250
SWIDTH 556 0
DWIDTH 8 0
BBX 6 11 1 0
BITMAP
08
78
00
8C
CC
CC
CC
CC
CC
FC
7C
ENDCHAR
STARTCHAR ucircumflex
ENCODING 251
SWIDTH 556 0
DWIDTH 8 0
BBX 6 10 1 0
BITMAP
30
48
8C
CC
CC
CC
CC
CC
FC
7C
ENDCHAR
STARTCHAR udieresis
ENCODING 252
SWIDTH 556 0
DWIDTH 8 0
BBX 6 11 1 0
BITMAP
48
48
00
8C
CC
CC
CC
CC
CC
FC
7C
ENDCHAR
STARTCHAR yacute
ENCODING 253
SWIDTH 500 0
DWIDTH 7 0
BBX 6 14 1 -3
BITMAP
10
70
00
8C
8C
8C
C8
D8
58
70
30
60
60
C0
ENDCHAR
STARTCHAR thorn
ENCODING 254
SWIDTH 556 0
DWIDTH 8 0
BBX 6 13 1 -3
BITMAP
C0
C0
F0
F8
CC
CC
C4
CC
FC
F8
C0
C0
80
ENDCHAR
STARTCHAR ydieresis
ENCODING 255
SWIDTH 500 0
DWIDTH 7 0
BBX 6 14 1 -3
BITMAP
D8
D8
00
8C
8C
8C
C8
D8
58
70
30
60
60
C0
ENDCHAR
STARTCHAR .notdef
ENCODING -1
SWIDTH 500 0
DWIDTH 7 0
BBX 7 10 0 0
BITMAP
FE
82
C6
AA
B2
92
AA
CA
C6
FE
ENDCHAR
STARTCHAR quoteright
ENCODING -1
SWIDTH 222 0
DWIDTH 3 0
BBX 3 4 0 6
BITMAP
60
60
C0
C0
ENDCHAR
STARTCHAR quoteleft
ENCODING -1
SWIDTH 222 0
DWIDTH 3 0
BBX 3 4 0 6
BITMAP
C0
C0
60
60
ENDCHAR
STARTCHAR fraction
ENCODING -1
SWIDTH 167 0
DWIDTH 2 0
BBX 7 10 -2 0
BITMAP
06
04
0C
18
10
30
60
40
C0
80
ENDCHAR
STARTCHAR florin
ENCODING -1
SWIDTH 611 0
DWIDTH 9 0
BBX 8 13 0 -3
BITMAP
07
0F
0C
0C
3E
3E
18
18
18
18
10
F0
E0
ENDCHAR
STARTCHAR quotedblleft
ENCODING -1
SWIDTH 389 0
DWIDTH 5 0
BBX 5 4 0 6
BITMAP
D0
D8
58
68
ENDCHAR
STARTCHAR guilsinglleft
ENCODING -1
SWIDTH 333 0
DWIDTH 5 0
BBX 3 5 1 1
BITMAP
60
C0
C0
60
60
ENDCHAR
STARTCHAR guilsinglright
ENCODING -1
SWIDTH 333 0
DWIDTH 5 0
BBX 2 6 1 1
BITMAP
80
C0
C0
40
C0
80
ENDCHAR
STARTCHAR fi
ENCODING -1
SWIDTH 611 0
DWIDTH 9 0
BBX 7 10 0 0
BITMAP
3E
7E
FE
7E
62
62
62
62
62
62
ENDCHAR
STARTCHAR fl
ENCODING -1
SWIDTH 611 0
DWIDTH 9 0
BBX 7 10 0 0
BITMAP
3E
7E
FA
72
62
62
62
62
62
62
ENDCHAR
STARTCHAR endash
ENCODING -1
SWIDTH 500 0
DWIDTH 7 0
BBX 7 1 0 3
BITMAP
FE
ENDCHAR
STARTCHAR dagger
ENCODING -1
SWIDTH 444 0
DWIDTH 6 0
BBX 4 10 1 0
BITMAP
60
60
F0
60
60
60
60
60
60
60
ENDCHAR
STARTCHAR daggerdbl
ENCODING -1
SWIDTH 444 0
DWIDTH 6 0
BBX 4 10 1 0
BITMAP
60
60
F0
60
60
60
60
F0
60
60
ENDCHAR
STARTCHAR bullet
ENCODING -1
SWIDTH 500 0
DWIDTH 7 0
BBX 5 5 1 2
BITMAP
70
F8
F8
F8
70
ENDCHAR
STARTCHAR quotesinglbase
ENCODING -1
SWIDTH 222 0
DWIDTH 3 0
BBX 3 4 0 -1
BITMAP
60
60
40
C0
ENDCHAR
STARTCHAR quotedblbase
ENCODING -1
SWIDTH 389 0
DWIDTH 5 0
BBX 5 4 0 -1
BITMAP
68
78
D8
D0
ENDCHAR
STARTCHAR quotedblright
ENCODING -1
SWIDTH 389 0
DWIDTH 5 0
BBX 5 4 0 6
BITMAP
68
78
D8
D0
ENDCHAR
STARTCHAR ellipsis
ENCODING -1
SWIDTH 1000 0
DWIDTH 14 0
BBX 12 2 1 0
BITMAP
C630
C630
ENDCHAR
STARTCHAR perthousand
ENCODING -1
SWIDTH 1000 0
DWIDTH 14 0
BBX 14 10 0 0
BITMAP
7300
F200
9600
F400
7C00
0B38
1FBC
14A4
27BC
2338
ENDCHAR
STARTCHAR circumflex
ENCODING -1
SWIDTH 278 0
DWIDTH 4 0
BBX 4 2 0 8
BITMAP
60
B0
ENDCHAR
STARTCHAR tilde
ENCODING -1
SWIDTH 278 0
DWIDTH 4 0
BBX 4 2 0 8
BITMAP
D0
70
ENDCHAR
STARTCHAR breve
ENCODING -1
SWIDTH 278 0
DWIDTH 4 0
BBX 4 2 0 8
BITMAP
90
F0
ENDCHAR
STARTCHAR dotaccent
ENCODING -1
SWIDTH 278 0
DWIDTH 4 0
BBX 2 2 1 8
BITMAP
C0
C0
ENDCHAR
STARTCHAR ring
ENCODING -1
SWIDTH 278 0
DWIDTH 4 0
BBX 3 3 0 8
BITMAP
60
A0
60
ENDCHAR
STARTCHAR hungarumlaut
ENCODING -1
SWIDTH 278 0
DWIDTH 4 0
BBX 6 3 -1 7
BITMAP
6C
58
90
ENDCHAR
STARTCHAR ogonek
ENCODING -1
SWIDTH 278 0
DWIDTH 4 0
BBX 4 3 0 -3
BITMAP
70
C0
60
ENDCHAR
STARTCHAR caron
ENCODING -1
SWIDTH 278 0
DWIDTH 4 0
BBX 4 2 0 8
BITMAP
90
60
ENDCHAR
STARTCHAR emdash
ENCODING -1
SWIDTH 1000 0
DWIDTH 14 0
BBX 14 1 0 3
BITMAP
FFFC
ENDCHAR
STARTCHAR Lslash
ENCODING -1
SWIDTH 444 0
DWIDTH 6 0
BBX 6 10 0 0
BITMAP
60
60
60
78
78
E0
E0
60
7C
7C
ENDCHAR
STARTCHAR OE
ENCODING -1
SWIDTH 1000 0
DWIDTH 14 0
BBX 12 10 1 0
BITMAP
3DF0
7FF0
C300
C3F0
83F0
8300
C300
C300
7FF0
3DF0
ENDCHAR
STARTCHAR dotlessi
ENCODING -1
SWIDTH 278 0
DWIDTH 4 0
BBX 2 8 1 0
BITMAP
C0
C0
C0
C0
C0
C0
C0
C0
ENDCHAR
STARTCHAR lslash
ENCODING -1
SWIDTH 278 0
DWIDTH 4 0
BBX 4 10 0 0
BITMAP
60
60
60
70
60
E0
60
60
60
60
ENDCHAR
STARTCHAR oe
ENCODING -1
SWIDTH 833 0
DWIDTH 12 0
BBX 12 8 0 0
BITMAP
39C0
7F60
C620
C7E0
C600
C600
7FE0
39F0
ENDCHAR
STARTCHAR trademark
ENCODING -1
SWIDTH 1000 0
DWIDTH 14 0
BBX 12 7 1 3
BITMAP
F730
6730
6730
67D0
66D0
66D0
66D0
ENDCHAR
STARTCHAR minus
ENCODING -1
SWIDTH 600 0
DWIDTH 8 0
BBX 7 1 1 3
BITMAP
FE
ENDCHAR
STARTCHAR Scaron
ENCODING -1
SWIDTH 611 0
DWIDTH 9 0
BBX 8 13 0 0
BITMAP
34
1C
00
7E
7E
40
78
3E
03
03
03
7E
FC
ENDCHAR
STARTCHAR Ydieresis
ENCODING -1
SWIDTH 556 0
DWIDTH 8 0
BBX 7 13 0 0
BITMAP
24
24
00
C2
C2
66
6C
3C
18
18
18
18
18
ENDCHAR
STARTCHAR Zcaron
ENCODING -1
SWIDTH 500 0
DWIDTH 7 0
BBX 7 13 0 0
BITMAP
2C
18
00
7C
7E
0C
0C
18
30
60
40
FC
FE
ENDCHAR
STARTCHAR scaron
ENCODING -1
SWIDTH 500 0
DWIDTH 7 0
BBX 7 11 0 0
BITMAP
6C
38
00
7C
78
40
7C
1C
06
7C
FC
ENDCHAR
STARTCHAR zcaron
ENCODING -1
SWIDTH 444 0
DWIDTH 6 0
BBX 6 11 0 0
BITMAP
48
30
00
7C
7C
18
38
70
60
F8
FC
ENDCHAR
STARTCHAR Delta
ENCODING -1
SWIDTH 709 0
DWIDTH 10 0
BBX 10 10 0 0
BITMAP
0C00
1E00
1E00
1200
3300
2300
6180
6180
4080
FFC0
ENDCHAR
STARTCHAR Omega
ENCODING -1
SWIDTH 786 0
DWIDTH 11 0
BBX 9 9 1 0
BITMAP
3E00
6300
C180
C180
C180
C180
4100
2200
F780
ENDCHAR
STARTCHAR pi
ENCODING -1
SWIDTH 641 0
DWIDTH 9 0
BBX 9 7 0 0
BITMAP
FF80
3300
2300
2300
6300
6300
6300
ENDCHAR
STARTCHAR Euro
ENCODING -1
SWIDTH 611 0
DWIDTH 9 0
BBX 8 10 0 0
BITMAP
1F
3F
60
FC
60
FC
30
38
1F
07
ENDCHAR
STARTCHAR estimated
ENCODING -1
SWIDTH 844 0
DWIDTH 12 0
BBX 11 10 0 0
BITMAP
0F00
30C0
4060
4060
C060
FF80
4000
4000
2040
1F80
ENDCHAR
STARTCHAR partialdiff
ENCODING -1
SWIDTH 610 0
DWIDTH 9 0
BBX 7 11 1 0
BITMAP
78
9C
04
06
76
CE
86
86
8C
CC
78
ENDCHAR
STARTCHAR product
ENCODING -1
SWIDTH 767 0
DWIDTH 11 0
BBX 10 10 0 -1
BITMAP
FFC0
3180
3180
3180
3180
3180
3180
3180
3180
3180
ENDCHAR
STARTCHAR summation
ENCODING -1
SWIDTH 602 0
DWIDTH 8 0
BBX 8 10 0 -1
BITMAP
FF
60
30
18
0C
08
18
30
60
FF
ENDCHAR
STARTCHAR uni2219
ENCODING -1
SWIDTH 305 0
DWIDTH 4 0
BBX 2 2 1 3
BITMAP
C0
C0
ENDCHAR
STARTCHAR radical
ENCODING -1
SWIDTH 626 0
DWIDTH 9 0
BBX 8 13 1 -2
BITMAP
01
02
02
02
02
04
C4
64
64
28
38
18
18
ENDCHAR
STARTCHAR infinity
ENCODING -1
SWIDTH 799 0
DWIDTH 11 0
BBX 9 5 1 1
BITMAP
6380
9480
8880
8C80
7380
ENDCHAR
STARTCHAR integral
ENCODING -1
SWIDTH 395 0
DWIDTH 6 0
BBX 5 14 0 -2
BITMAP
18
30
20
20
20
20
20
30
30
30
30
30
20
E0
ENDCHAR
STARTCHAR approxequal
ENCODING -1
SWIDTH 590 0
DWIDTH 8 0
BBX 6 6 1 1
BITMAP
60
B4
1C
40
B4
1C
ENDCHAR
STARTCHAR notequal
ENCODING -1
SWIDTH 590 0
DWIDTH 8 0
BBX 7 6 1 1
BITMAP
08
FE
10
20
FE
40
ENDCHAR
STARTCHAR lessequal
ENCODING -1
SWIDTH 590 0
DWIDTH 8 0
BBX 7 9 1 0
BITMAP
02
0C
30
C0
C0
30
0E
02
FE
ENDCHAR
STARTCHAR greaterequal
ENCODING -1
SWIDTH 590 0
DWIDTH 8 0
BBX 7 8 1 0
BITMAP
E0
18
06
0C
30
C0
00
FE
ENDCHAR
STARTCHAR lozenge
ENCODING -1
SWIDTH 626 0
DWIDTH 9 0
BBX 7 11 1 -1
BITMAP
30
38
68
4C
C4
82
C4
44
68
38
30
ENDCHAR
STARTCHAR uni02C9
ENCODING -1
SWIDTH 278 0
DWIDTH 4 0
BBX 4 1 0 8
BITMAP
F0
ENDCHAR
STARTCHAR uni03A9
ENCODING -1
SWIDTH 786 0
DWIDTH 11 0
BBX 9 9 1 0
BITMAP
3E00
6300
C180
C180
C180
C180
4100
2200
F780
ENDCHAR
STARTCHAR afii61289
ENCODING -1
SWIDTH 552 0
DWIDTH 8 0
BBX 7 10 0 0
BITMAP
1C
34
24
24
28
38
30
E0
36
1C
ENDCHAR
STARTCHAR uni03BC
ENCODING -1
SWIDTH 556 0
DWIDTH 8 0
BBX 6 11 1 -3
BITMAP
8C
CC
CC
CC
CC
CC
FC
FC
C0
C0
80
ENDCHAR
STARTCHAR uni2215
ENCODING -1
SWIDTH 167 0
DWIDTH 2 0
BBX 7 10 -2 0
BITMAP
06
04
0C
18
10
30
60
40
C0
80
ENDCHAR
ENDFONT
